<?xml version="1.0" encoding="UTF-8" standalone="no"?>
<svg
   width="165mm"
   height="40mm"
   viewBox="0 0 165 40"
   version="1.1"
   id="svg2375"
   xmlns="http://www.w3.org/2000/svg"
   xmlns:svg="http://www.w3.org/2000/svg">
  <defs
     id="defs2372" />
  <g
     id="g23422">
    <path
       d="m 42.292004,27.61072 q 0,-1.23304 0.685489,-1.82657 0.572635,-0.49322 1.396058,-0.49322 0.91538,0 1.496374,0.60189 0.580994,0.59771 0.580994,1.65521 0,0.85686 -0.259149,1.35008 -0.254968,0.48904 -0.748186,0.76072 -0.489039,0.27169 -1.070033,0.27169 -0.932098,0 -1.508913,-0.59771 -0.572634,-0.59772 -0.572634,-1.72209 z m 0.773265,0 q 0,0.85269 0.372004,1.27903 0.372003,0.42216 0.936278,0.42216 0.560095,0 0.932099,-0.42634 0.372003,-0.42634 0.372003,-1.29992 0,-0.82343 -0.376183,-1.24559 -0.372004,-0.42634 -0.927919,-0.42634 -0.564275,0 -0.936278,0.42216 -0.372004,0.42216 -0.372004,1.27484 z"
       style="font-size:8.56026px;line-height:2;font-family:Arial;-inkscape-font-specification:Arial;fill:#454545;stroke:#454545;stroke-width:0.25;stroke-linecap:round;stroke-linejoin:round;paint-order:markers fill stroke"
       id="path23022" />
    <path
       d="m 47.33704,31.53139 v -6.14015 h 0.685489 v 0.57682 q 0.242429,-0.33857 0.547556,-0.50576 0.305126,-0.17137 0.739827,-0.17137 0.568455,0 1.003155,0.29258 0.434701,0.29259 0.656231,0.82761 0.22153,0.53083 0.22153,1.16617 0,0.68131 -0.246609,1.22886 -0.242429,0.54338 -0.710568,0.83596 -0.463959,0.28841 -0.978077,0.28841 -0.376183,0 -0.67713,-0.15883 -0.296766,-0.15883 -0.489038,-0.40126 v 2.16096 z m 0.681309,-3.89559 q 0,0.85687 0.346925,1.26649 0.346925,0.40962 0.840143,0.40962 0.501577,0 0.856862,-0.42216 0.359464,-0.42634 0.359464,-1.31664 0,-0.84851 -0.351105,-1.27067 -0.346924,-0.42216 -0.831783,-0.42216 -0.480679,0 -0.852682,0.45142 -0.367824,0.44724 -0.367824,1.3041 z"
       style="font-size:8.56026px;line-height:2;font-family:Arial;-inkscape-font-specification:Arial;fill:#454545;stroke:#454545;stroke-width:0.25;stroke-linecap:round;stroke-linejoin:round;paint-order:markers fill stroke"
       id="path23024" />
    <path
       d="m 55.140753,28.40071 0.777446,0.0961 q -0.183912,0.68131 -0.68131,1.05749 -0.497398,0.37618 -1.270664,0.37618 -0.973897,0 -1.546531,-0.59771 -0.568455,-0.6019 -0.568455,-1.68447 0,-1.12019 0.576815,-1.7388 0.576814,-0.61861 1.496373,-0.61861 0.890301,0 1.454575,0.60607 0.564275,0.60607 0.564275,1.70537 0,0.0669 -0.0042,0.20063 h -3.310413 q 0.0418,0.73146 0.413801,1.12019 0.372004,0.38872 0.927919,0.38872 0.413802,0 0.706389,-0.21735 0.292587,-0.21735 0.463959,-0.69385 z m -2.47027,-1.21633 h 2.47863 q -0.05016,-0.56009 -0.284228,-0.84014 -0.359464,-0.4347 -0.932098,-0.4347 -0.518297,0 -0.873581,0.34692 -0.351105,0.34693 -0.388723,0.92792 z"
       style="font-size:8.56026px;line-height:2;font-family:Arial;-inkscape-font-specification:Arial;fill:#454545;stroke:#454545;stroke-width:0.25;stroke-linecap:round;stroke-linejoin:round;paint-order:markers fill stroke"
       id="path23026" />
    <path
       d="m 56.867017,29.83021 v -4.43897 h 0.67713 v 0.63116 q 0.489038,-0.73147 1.412777,-0.73147 0.401262,0 0.735647,0.14629 0.338565,0.14211 0.505758,0.37618 0.167193,0.23407 0.23407,0.55592 0.0418,0.20899 0.0418,0.73147 v 2.72942 h -0.752367 v -2.70016 q 0,-0.45978 -0.08778,-0.68549 -0.08778,-0.22989 -0.313486,-0.36365 -0.22153,-0.13793 -0.522477,-0.13793 -0.480678,0 -0.831783,0.30513 -0.346924,0.30512 -0.346924,1.1578 v 2.4243 z"
       style="font-size:8.56026px;line-height:2;font-family:Arial;-inkscape-font-specification:Arial;fill:#454545;stroke:#454545;stroke-width:0.25;stroke-linecap:round;stroke-linejoin:round;paint-order:markers fill stroke"
       id="path23028" />
    <path
       d="m 61.339418,27.99109 v -0.75655 h 2.311439 v 0.75655 z"
       style="font-size:8.56026px;line-height:2;font-family:Arial;-inkscape-font-specification:Arial;fill:#454545;stroke:#454545;stroke-width:0.25;stroke-linecap:round;stroke-linejoin:round;paint-order:markers fill stroke"
       id="path23030" />
    <path
       d="m 64.190047,28.5052 0.74401,-0.11703 q 0.0627,0.44724 0.34693,0.68549 0.2884,0.23825 0.80252,0.23825 0.5183,0 0.76909,-0.20899 0.25079,-0.21317 0.25079,-0.4974 0,-0.25497 -0.22153,-0.40126 -0.15466,-0.10032 -0.76909,-0.25497 -0.8276,-0.20899 -1.14945,-0.35946 -0.31767,-0.15466 -0.48486,-0.42217 -0.16301,-0.27168 -0.16301,-0.59771 0,-0.29677 0.13375,-0.54755 0.13794,-0.25497 0.37201,-0.42217 0.17555,-0.12957 0.4765,-0.21735 0.30512,-0.0919 0.65205,-0.0919 0.52247,0 0.91538,0.15047 0.39708,0.15047 0.58517,0.40962 0.18809,0.25497 0.25915,0.68549 l -0.73565,0.10032 q -0.0502,-0.34275 -0.29259,-0.53502 -0.23825,-0.19227 -0.67713,-0.19227 -0.51829,0 -0.73982,0.17137 -0.22153,0.17137 -0.22153,0.40126 0,0.1463 0.0919,0.26333 0.092,0.12122 0.28841,0.20063 0.11285,0.0418 0.66459,0.19228 0.79835,0.21317 1.11183,0.3511 0.31767,0.13375 0.4974,0.3929 0.17973,0.25915 0.17973,0.64369 0,0.37619 -0.22153,0.71057 -0.21735,0.33021 -0.63115,0.51412 -0.4138,0.17973 -0.93628,0.17973 -0.86522,0 -1.32082,-0.35946 -0.45142,-0.35947 -0.57682,-1.06586 z"
       style="font-size:8.56026px;line-height:2;font-family:Arial;-inkscape-font-specification:Arial;fill:#454545;stroke:#454545;stroke-width:0.25;stroke-linecap:round;stroke-linejoin:round;paint-order:markers fill stroke"
       id="path23032" />
    <path
       d="m 68.491077,27.61072 q 0,-1.23304 0.68549,-1.82657 0.57264,-0.49322 1.39606,-0.49322 0.91538,0 1.49638,0.60189 0.58099,0.59771 0.58099,1.65521 0,0.85686 -0.25915,1.35008 -0.25497,0.48904 -0.74819,0.76072 -0.48903,0.27169 -1.07003,0.27169 -0.9321,0 -1.50891,-0.59771 -0.57264,-0.59772 -0.57264,-1.72209 z m 0.77327,0 q 0,0.85269 0.372,1.27903 0.37201,0.42216 0.93628,0.42216 0.5601,0 0.9321,-0.42634 0.372,-0.42634 0.372,-1.29992 0,-0.82343 -0.37618,-1.24559 -0.372,-0.42634 -0.92792,-0.42634 -0.56427,0 -0.93628,0.42216 -0.372,0.42216 -0.372,1.27484 z"
       style="font-size:8.56026px;line-height:2;font-family:Arial;-inkscape-font-specification:Arial;fill:#454545;stroke:#454545;stroke-width:0.25;stroke-linecap:round;stroke-linejoin:round;paint-order:markers fill stroke"
       id="path23034" />
    <path
       d="m 76.445267,29.83021 v -0.65205 q -0.5183,0.75236 -1.4086,0.75236 -0.3929,0 -0.73564,-0.15047 -0.33857,-0.15047 -0.50576,-0.37618 -0.16301,-0.22989 -0.22989,-0.5601 -0.046,-0.22153 -0.046,-0.70221 v -2.75032 h 0.75237 v 2.46191 q 0,0.58936 0.046,0.79417 0.071,0.29677 0.30094,0.46814 0.22989,0.16719 0.56846,0.16719 0.33856,0 0.63533,-0.17137 0.29677,-0.17555 0.41798,-0.47232 0.12539,-0.30095 0.12539,-0.8694 v -2.37832 h 0.75237 v 4.43897 z"
       style="font-size:8.56026px;line-height:2;font-family:Arial;-inkscape-font-specification:Arial;fill:#454545;stroke:#454545;stroke-width:0.25;stroke-linecap:round;stroke-linejoin:round;paint-order:markers fill stroke"
       id="path23036" />
    <path
       d="m 78.292747,29.83021 v -4.43897 h 0.67713 v 0.67295 q 0.25915,-0.47232 0.4765,-0.62279 0.22153,-0.15047 0.48486,-0.15047 0.38036,0 0.77326,0.24243 l -0.25915,0.69803 q -0.27587,-0.16302 -0.55173,-0.16302 -0.24661,0 -0.44306,0.15048 -0.19645,0.14629 -0.28005,0.40962 -0.1254,0.40126 -0.1254,0.87776 v 2.32398 z"
       style="font-size:8.56026px;line-height:2;font-family:Arial;-inkscape-font-specification:Arial;fill:#454545;stroke:#454545;stroke-width:0.25;stroke-linecap:round;stroke-linejoin:round;paint-order:markers fill stroke"
       id="path23038" />
    <path
       d="m 84.056707,28.20426 0.73983,0.0961 q -0.12121,0.76491 -0.62279,1.19961 -0.4974,0.43052 -1.22469,0.43052 -0.9112,0 -1.46711,-0.59353 -0.55174,-0.59772 -0.55174,-1.70955 0,-0.71892 0.23825,-1.25812 0.23825,-0.5392 0.72311,-0.8067 0.48904,-0.27169 1.06167,-0.27169 0.72311,0 1.18289,0.36782 0.45978,0.36365 0.58935,1.0366 l -0.73146,0.11285 q -0.1045,-0.44724 -0.37201,-0.67295 -0.26333,-0.22571 -0.63951,-0.22571 -0.56845,0 -0.92374,0.40962 -0.35528,0.40544 -0.35528,1.28738 0,0.89449 0.34274,1.29993 0.34275,0.40544 0.89448,0.40544 0.44306,0 0.73983,-0.27169 0.29677,-0.27169 0.37618,-0.83596 z"
       style="font-size:8.56026px;line-height:2;font-family:Arial;-inkscape-font-specification:Arial;fill:#454545;stroke:#454545;stroke-width:0.25;stroke-linecap:round;stroke-linejoin:round;paint-order:markers fill stroke"
       id="path23040" />
    <path
       d="m 88.478947,28.40071 0.77745,0.0961 q -0.18391,0.68131 -0.68131,1.05749 -0.4974,0.37618 -1.27066,0.37618 -0.9739,0 -1.54653,-0.59771 -0.56846,-0.6019 -0.56846,-1.68447 0,-1.12019 0.57682,-1.7388 0.57681,-0.61861 1.49637,-0.61861 0.8903,0 1.45457,0.60607 0.56428,0.60607 0.56428,1.70537 0,0.0669 -0.004,0.20063 h -3.31041 q 0.0418,0.73146 0.4138,1.12019 0.372,0.38872 0.92792,0.38872 0.4138,0 0.70639,-0.21735 0.29258,-0.21735 0.46395,-0.69385 z m -2.47027,-1.21633 h 2.47863 q -0.0502,-0.56009 -0.28422,-0.84014 -0.35947,-0.4347 -0.9321,-0.4347 -0.5183,0 -0.87358,0.34692 -0.35111,0.34693 -0.38873,0.92792 z"
       style="font-size:8.56026px;line-height:2;font-family:Arial;-inkscape-font-specification:Arial;fill:#454545;stroke:#454545;stroke-width:0.25;stroke-linecap:round;stroke-linejoin:round;paint-order:markers fill stroke"
       id="path23042" />
    <path
       d="m 95.618077,28.40071 0.77745,0.0961 q -0.18392,0.68131 -0.68131,1.05749 -0.4974,0.37618 -1.27067,0.37618 -0.97389,0 -1.54653,-0.59771 -0.56845,-0.6019 -0.56845,-1.68447 0,-1.12019 0.57681,-1.7388 0.57682,-0.61861 1.49637,-0.61861 0.89031,0 1.45458,0.60607 0.56427,0.60607 0.56427,1.70537 0,0.0669 -0.004,0.20063 h -3.31042 q 0.0418,0.73146 0.4138,1.12019 0.37201,0.38872 0.92792,0.38872 0.4138,0 0.70639,-0.21735 0.29259,-0.21735 0.46396,-0.69385 z m -2.47027,-1.21633 h 2.47863 q -0.0502,-0.56009 -0.28423,-0.84014 -0.35946,-0.4347 -0.9321,-0.4347 -0.51829,0 -0.87358,0.34692 -0.3511,0.34693 -0.38872,0.92792 z"
       style="font-size:8.56026px;line-height:2;font-family:Arial;-inkscape-font-specification:Arial;fill:#454545;stroke:#454545;stroke-width:0.25;stroke-linecap:round;stroke-linejoin:round;paint-order:markers fill stroke"
       id="path23044" />
    <path
       d="m 100.22424,29.83021 v -0.5601 q -0.422173,0.66041 -1.241413,0.66041 -0.53084,0 -0.97808,-0.29259 -0.44306,-0.29258 -0.68967,-0.81506 -0.24242,-0.52666 -0.24242,-1.20797 0,-0.66459 0.22153,-1.20378 0.22153,-0.54338 0.66459,-0.83179 0.44306,-0.2884 0.99061,-0.2884 0.40126,0 0.71475,0.17137 0.31349,0.16719 0.509943,0.43888 V 23.7026 h 0.74818 v 6.12761 z M 97.845917,27.6149 q 0,0.85269 0.35947,1.27485 0.35946,0.42216 0.8485,0.42216 0.49322,0 0.83596,-0.40126 0.346923,-0.40545 0.346923,-1.23305 0,-0.9112 -0.351103,-1.33754 -0.3511,-0.42634 -0.86522,-0.42634 -0.50158,0 -0.84014,0.40962 -0.33439,0.40962 -0.33439,1.29156 z"
       style="font-size:8.56026px;line-height:2;font-family:Arial;-inkscape-font-specification:Arial;fill:#454545;stroke:#454545;stroke-width:0.25;stroke-linecap:round;stroke-linejoin:round;paint-order:markers fill stroke"
       id="path23046" />
    <path
       d="m 105.01848,29.83021 v -0.65205 q -0.51829,0.75236 -1.4086,0.75236 -0.3929,0 -0.73564,-0.15047 -0.33857,-0.15047 -0.50576,-0.37618 -0.16301,-0.22989 -0.22989,-0.5601 -0.046,-0.22153 -0.046,-0.70221 v -2.75032 h 0.75237 v 2.46191 q 0,0.58936 0.046,0.79417 0.071,0.29677 0.30094,0.46814 0.22989,0.16719 0.56846,0.16719 0.33856,0 0.63533,-0.17137 0.29677,-0.17555 0.41798,-0.47232 0.1254,-0.30095 0.1254,-0.8694 v -2.37832 h 0.75236 v 4.43897 z"
       style="font-size:8.56026px;line-height:2;font-family:Arial;-inkscape-font-specification:Arial;fill:#454545;stroke:#454545;stroke-width:0.25;stroke-linecap:round;stroke-linejoin:round;paint-order:markers fill stroke"
       id="path23048" />
    <path
       d="m 109.77093,28.20426 0.73982,0.0961 q -0.12121,0.76491 -0.62279,1.19961 -0.4974,0.43052 -1.22468,0.43052 -0.9112,0 -1.46712,-0.59353 -0.55173,-0.59772 -0.55173,-1.70955 0,-0.71892 0.23825,-1.25812 0.23824,-0.5392 0.7231,-0.8067 0.48904,-0.27169 1.06168,-0.27169 0.7231,0 1.18288,0.36782 0.45978,0.36365 0.58936,1.0366 l -0.73147,0.11285 q -0.1045,-0.44724 -0.372,-0.67295 -0.26333,-0.22571 -0.63952,-0.22571 -0.56845,0 -0.92373,0.40962 -0.35529,0.40544 -0.35529,1.28738 0,0.89449 0.34275,1.29993 0.34274,0.40544 0.89448,0.40544 0.44306,0 0.73982,-0.27169 0.29677,-0.27169 0.37619,-0.83596 z"
       style="font-size:8.56026px;line-height:2;font-family:Arial;-inkscape-font-specification:Arial;fill:#454545;stroke:#454545;stroke-width:0.25;stroke-linecap:round;stroke-linejoin:round;paint-order:markers fill stroke"
       id="path23050" />
    <path
       d="m 114.05106,29.28265 q -0.41798,0.35528 -0.8067,0.50158 -0.38454,0.14629 -0.8276,0.14629 -0.73147,0 -1.12437,-0.35528 -0.39291,-0.35947 -0.39291,-0.91538 0,-0.32603 0.1463,-0.59354 0.15047,-0.27168 0.38872,-0.4347 0.24243,-0.16301 0.54338,-0.24661 0.22153,-0.0585 0.66877,-0.11285 0.91119,-0.10868 1.34172,-0.25915 0.004,-0.15465 0.004,-0.19645 0,-0.45978 -0.21317,-0.64787 -0.28841,-0.25497 -0.85687,-0.25497 -0.53083,0 -0.7858,0.18809 -0.25079,0.18391 -0.37201,0.65623 l -0.73564,-0.10031 q 0.10031,-0.47232 0.3302,-0.76073 0.22989,-0.29259 0.66459,-0.44724 0.4347,-0.15883 1.00734,-0.15883 0.56845,0 0.92374,0.13375 0.35528,0.13376 0.52247,0.33857 0.1672,0.20063 0.23407,0.50993 0.0376,0.19228 0.0376,0.69385 v 1.00316 q 0,1.04913 0.046,1.32918 0.0502,0.27587 0.19227,0.53084 h -0.7858 q -0.11704,-0.23407 -0.15048,-0.54756 z m -0.0627,-1.68028 q -0.40963,0.16719 -1.22887,0.28422 -0.46396,0.0669 -0.65623,0.15048 -0.19227,0.0836 -0.29677,0.2466 -0.10449,0.15884 -0.10449,0.35529 0,0.30095 0.22571,0.50158 0.22989,0.20063 0.66877,0.20063 0.4347,0 0.77326,-0.18809 0.33857,-0.19228 0.4974,-0.52248 0.12122,-0.25497 0.12122,-0.75237 z"
       style="font-size:8.56026px;line-height:2;font-family:Arial;-inkscape-font-specification:Arial;fill:#454545;stroke:#454545;stroke-width:0.25;stroke-linecap:round;stroke-linejoin:round;paint-order:markers fill stroke"
       id="path23052" />
    <path
       d="m 117.5621,29.15726 0.10868,0.66459 q -0.31767,0.0669 -0.56846,0.0669 -0.40962,0 -0.63533,-0.12957 -0.22571,-0.12957 -0.31766,-0.33857 -0.092,-0.21317 -0.092,-0.8903 v -2.55386 h -0.55174 v -0.58518 h 0.55174 v -1.09929 l 0.74819,-0.45142 v 1.55071 h 0.75654 v 0.58518 h -0.75654 v 2.59566 q 0,0.32185 0.0376,0.4138 0.0418,0.092 0.12958,0.1463 0.092,0.0543 0.25915,0.0543 0.12539,0 0.3302,-0.0292 z"
       style="font-size:8.56026px;line-height:2;font-family:Arial;-inkscape-font-specification:Arial;fill:#454545;stroke:#454545;stroke-width:0.25;stroke-linecap:round;stroke-linejoin:round;paint-order:markers fill stroke"
       id="path23054" />
    <path
       d="M 118.29775,24.56782 V 23.7026 h 0.75237 v 0.86522 z m 0,5.26239 v -4.43897 h 0.75237 v 4.43897 z"
       style="font-size:8.56026px;line-height:2;font-family:Arial;-inkscape-font-specification:Arial;fill:#454545;stroke:#454545;stroke-width:0.25;stroke-linecap:round;stroke-linejoin:round;paint-order:markers fill stroke"
       id="path23056" />
    <path
       d="m 119.91952,27.61072 q 0,-1.23304 0.68549,-1.82657 0.57263,-0.49322 1.39605,-0.49322 0.91538,0 1.49638,0.60189 0.58099,0.59771 0.58099,1.65521 0,0.85686 -0.25915,1.35008 -0.25497,0.48904 -0.74818,0.76072 -0.48904,0.27169 -1.07004,0.27169 -0.93209,0 -1.50891,-0.59771 -0.57263,-0.59772 -0.57263,-1.72209 z m 0.77326,0 q 0,0.85269 0.37201,1.27903 0.372,0.42216 0.93627,0.42216 0.5601,0 0.9321,-0.42634 0.37201,-0.42634 0.37201,-1.29992 0,-0.82343 -0.37619,-1.24559 -0.372,-0.42634 -0.92792,-0.42634 -0.56427,0 -0.93627,0.42216 -0.37201,0.42216 -0.37201,1.27484 z"
       style="font-size:8.56026px;line-height:2;font-family:Arial;-inkscape-font-specification:Arial;fill:#454545;stroke:#454545;stroke-width:0.25;stroke-linecap:round;stroke-linejoin:round;paint-order:markers fill stroke"
       id="path23058" />
    <path
       d="m 124.96456,29.83021 v -4.43897 h 0.67713 v 0.63116 q 0.48903,-0.73147 1.41277,-0.73147 0.40127,0 0.73565,0.14629 0.33857,0.14211 0.50576,0.37618 0.16719,0.23407 0.23407,0.55592 0.0418,0.20899 0.0418,0.73147 v 2.72942 h -0.75237 v -2.70016 q 0,-0.45978 -0.0878,-0.68549 -0.0878,-0.22989 -0.31348,-0.36365 -0.22153,-0.13793 -0.52248,-0.13793 -0.48068,0 -0.83178,0.30513 -0.34693,0.30512 -0.34693,1.1578 v 2.4243 z"
       style="font-size:8.56026px;line-height:2;font-family:Arial;-inkscape-font-specification:Arial;fill:#454545;stroke:#454545;stroke-width:0.25;stroke-linecap:round;stroke-linejoin:round;paint-order:markers fill stroke"
       id="path23060" />
    <path
       d="m 132.62615,29.28265 q -0.41798,0.35528 -0.8067,0.50158 -0.38455,0.14629 -0.82761,0.14629 -0.73146,0 -1.12437,-0.35528 -0.3929,-0.35947 -0.3929,-0.91538 0,-0.32603 0.14629,-0.59354 0.15048,-0.27168 0.38873,-0.4347 0.24243,-0.16301 0.54337,-0.24661 0.22153,-0.0585 0.66877,-0.11285 0.9112,-0.10868 1.34172,-0.25915 0.004,-0.15465 0.004,-0.19645 0,-0.45978 -0.21317,-0.64787 -0.2884,-0.25497 -0.85686,-0.25497 -0.53083,0 -0.7858,0.18809 -0.25079,0.18391 -0.37201,0.65623 l -0.73564,-0.10031 q 0.10031,-0.47232 0.3302,-0.76073 0.22989,-0.29259 0.66459,-0.44724 0.4347,-0.15883 1.00734,-0.15883 0.56845,0 0.92374,0.13375 0.35528,0.13376 0.52247,0.33857 0.1672,0.20063 0.23407,0.50993 0.0376,0.19228 0.0376,0.69385 v 1.00316 q 0,1.04913 0.046,1.32918 0.0502,0.27587 0.19227,0.53084 h -0.78581 q -0.11703,-0.23407 -0.15047,-0.54756 z m -0.0627,-1.68028 q -0.40962,0.16719 -1.22886,0.28422 -0.46396,0.0669 -0.65623,0.15048 -0.19227,0.0836 -0.29677,0.2466 -0.10449,0.15884 -0.10449,0.35529 0,0.30095 0.22571,0.50158 0.22989,0.20063 0.66877,0.20063 0.4347,0 0.77326,-0.18809 0.33857,-0.19228 0.4974,-0.52248 0.12121,-0.25497 0.12121,-0.75237 z"
       style="font-size:8.56026px;line-height:2;font-family:Arial;-inkscape-font-specification:Arial;fill:#454545;stroke:#454545;stroke-width:0.25;stroke-linecap:round;stroke-linejoin:round;paint-order:markers fill stroke"
       id="path23062" />
    <path
       d="M 134.47781,29.83021 V 23.7026 h 0.75237 v 6.12761 z"
       style="font-size:8.56026px;line-height:2;font-family:Arial;-inkscape-font-specification:Arial;fill:#454545;stroke:#454545;stroke-width:0.25;stroke-linecap:round;stroke-linejoin:round;paint-order:markers fill stroke"
       id="path23064" />
    <path
       d="m 138.7663,29.83021 v -4.43897 h 0.67713 v 0.67295 q 0.25915,-0.47232 0.4765,-0.62279 0.22153,-0.15047 0.48486,-0.15047 0.38036,0 0.77326,0.24243 l -0.25914,0.69803 q -0.27587,-0.16302 -0.55174,-0.16302 -0.24661,0 -0.44306,0.15048 -0.19645,0.14629 -0.28005,0.40962 -0.12539,0.40126 -0.12539,0.87776 v 2.32398 z"
       style="font-size:8.56026px;line-height:2;font-family:Arial;-inkscape-font-specification:Arial;fill:#454545;stroke:#454545;stroke-width:0.25;stroke-linecap:round;stroke-linejoin:round;paint-order:markers fill stroke"
       id="path23066" />
    <path
       d="m 141.35361,27.61072 q 0,-1.23304 0.68549,-1.82657 0.57263,-0.49322 1.39605,-0.49322 0.91538,0 1.49638,0.60189 0.58099,0.59771 0.58099,1.65521 0,0.85686 -0.25915,1.35008 -0.25497,0.48904 -0.74818,0.76072 -0.48904,0.27169 -1.07004,0.27169 -0.93209,0 -1.50891,-0.59771 -0.57263,-0.59772 -0.57263,-1.72209 z m 0.77326,0 q 0,0.85269 0.37201,1.27903 0.372,0.42216 0.93627,0.42216 0.5601,0 0.9321,-0.42634 0.37201,-0.42634 0.37201,-1.29992 0,-0.82343 -0.37619,-1.24559 -0.372,-0.42634 -0.92792,-0.42634 -0.56427,0 -0.93627,0.42216 -0.37201,0.42216 -0.37201,1.27484 z"
       style="font-size:8.56026px;line-height:2;font-family:Arial;-inkscape-font-specification:Arial;fill:#454545;stroke:#454545;stroke-width:0.25;stroke-linecap:round;stroke-linejoin:round;paint-order:markers fill stroke"
       id="path23068" />
    <path
       d="m 147.09249,29.83021 h -0.69802 V 23.7026 h 0.75236 v 2.18604 q 0.4765,-0.59771 1.21633,-0.59771 0.40962,0 0.77326,0.16719 0.36783,0.16301 0.6019,0.46396 0.23825,0.29677 0.372,0.71893 0.13375,0.42216 0.13375,0.90284 0,1.14109 -0.56427,1.76388 -0.56427,0.62279 -1.35426,0.62279 -0.78581,0 -1.23305,-0.65623 z m -0.008,-2.25292 q 0,0.79834 0.21735,1.15362 0.35528,0.581 0.96135,0.581 0.49322,0 0.85269,-0.42634 0.35946,-0.43052 0.35946,-1.27903 0,-0.8694 -0.34693,-1.2832 -0.34274,-0.4138 -0.83178,-0.4138 -0.49322,0 -0.85268,0.43052 -0.35946,0.42634 -0.35946,1.23723 z"
       style="font-size:8.56026px;line-height:2;font-family:Arial;-inkscape-font-specification:Arial;fill:#454545;stroke:#454545;stroke-width:0.25;stroke-linecap:round;stroke-linejoin:round;paint-order:markers fill stroke"
       id="path23070" />
    <path
       d="m 150.88358,27.61072 q 0,-1.23304 0.68549,-1.82657 0.57264,-0.49322 1.39606,-0.49322 0.91538,0 1.49637,0.60189 0.581,0.59771 0.581,1.65521 0,0.85686 -0.25915,1.35008 -0.25497,0.48904 -0.74819,0.76072 -0.48904,0.27169 -1.07003,0.27169 -0.9321,0 -1.50891,-0.59771 -0.57264,-0.59772 -0.57264,-1.72209 z m 0.77327,0 q 0,0.85269 0.372,1.27903 0.372,0.42216 0.93628,0.42216 0.56009,0 0.9321,-0.42634 0.372,-0.42634 0.372,-1.29992 0,-0.82343 -0.37618,-1.24559 -0.372,-0.42634 -0.92792,-0.42634 -0.56428,0 -0.93628,0.42216 -0.372,0.42216 -0.372,1.27484 z"
       style="font-size:8.56026px;line-height:2;font-family:Arial;-inkscape-font-specification:Arial;fill:#454545;stroke:#454545;stroke-width:0.25;stroke-linecap:round;stroke-linejoin:round;paint-order:markers fill stroke"
       id="path23072" />
    <path
       d="m 157.57129,29.15726 0.10867,0.66459 q -0.31766,0.0669 -0.56845,0.0669 -0.40962,0 -0.63533,-0.12957 -0.22571,-0.12957 -0.31767,-0.33857 -0.0919,-0.21317 -0.0919,-0.8903 v -2.55386 h -0.55174 v -0.58518 h 0.55174 v -1.09929 l 0.74818,-0.45142 v 1.55071 h 0.75655 v 0.58518 h -0.75655 v 2.59566 q 0,0.32185 0.0376,0.4138 0.0418,0.092 0.12957,0.1463 0.092,0.0543 0.25915,0.0543 0.1254,0 0.33021,-0.0292 z"
       style="font-size:8.56026px;line-height:2;font-family:Arial;-inkscape-font-specification:Arial;fill:#454545;stroke:#454545;stroke-width:0.25;stroke-linecap:round;stroke-linejoin:round;paint-order:markers fill stroke"
       id="path23074" />
  </g>
  <g
     id="g23426">
    <path
       style="display:inline;fill:#feea27;stroke-width:0.0766093"
       d="m 22.433768,30.562549 c -0.07584,-0.0081 -0.421021,-0.01866 -0.76705,-0.02338 -0.736315,-0.01004 -0.818931,-0.0146 -0.956659,-0.05286 -0.115933,-0.0322 -0.133523,-0.03359 -0.327505,-0.02588 -0.08239,0.0033 -0.196878,-0.0062 -0.284412,-0.02358 -0.08058,-0.01598 -0.252374,-0.0348 -0.381744,-0.04182 -0.154789,-0.0084 -0.244767,-0.02068 -0.263123,-0.03591 -0.01534,-0.01273 -0.08401,-0.02699 -0.152605,-0.0317 -0.0686,-0.0047 -0.145658,-0.01917 -0.17126,-0.03215 -0.0256,-0.01298 -0.07362,-0.0236 -0.106717,-0.0236 -0.03309,0 -0.06458,-0.0071 -0.06998,-0.01588 -0.0054,-0.0087 -0.06209,-0.02084 -0.125991,-0.0269 -0.135737,-0.01287 -0.417299,-0.07225 -0.493893,-0.104147 -0.02926,-0.01219 -0.09199,-0.0276 -0.139383,-0.03424 -0.04741,-0.0067 -0.124973,-0.03011 -0.172371,-0.05213 -0.04741,-0.02202 -0.144363,-0.05682 -0.215464,-0.07732 -0.07111,-0.0205 -0.210729,-0.06396 -0.310267,-0.09659 -0.09955,-0.03262 -0.22753,-0.07167 -0.284412,-0.08677 -0.05688,-0.0151 -0.165477,-0.04936 -0.24132,-0.07612 -0.07584,-0.02676 -0.16117,-0.05398 -0.189608,-0.06048 -0.02844,-0.0065 -0.06442,-0.02283 -0.07994,-0.03628 -0.03827,-0.03316 -0.1952,-0.09157 -0.24603,-0.09157 -0.02266,0 -0.105959,-0.02977 -0.185119,-0.06615 -0.07915,-0.03638 -0.182706,-0.07917 -0.230104,-0.09508 -0.04741,-0.01591 -0.117212,-0.0476 -0.155134,-0.07042 -0.105085,-0.06324 -0.389353,-0.199274 -0.416412,-0.199274 -0.01318,0 -0.07226,-0.02992 -0.131285,-0.06648 -0.05902,-0.03657 -0.18875,-0.110446 -0.288296,-0.164178 -0.09955,-0.05373 -0.235291,-0.132077 -0.30165,-0.174104 -0.06636,-0.04202 -0.127171,-0.07674 -0.135123,-0.07714 -0.0193,-9.8e-4 -0.55983,-0.357628 -0.61469,-0.405587 -0.0237,-0.02072 -0.08102,-0.06027 -0.127386,-0.08789 -0.04636,-0.02762 -0.112286,-0.06781 -0.146515,-0.0893 -0.03422,-0.0215 -0.0809,-0.04698 -0.103737,-0.05663 -0.02283,-0.0097 -0.06765,-0.0405 -0.09959,-0.06854 -0.03195,-0.02805 -0.08786,-0.06619 -0.124268,-0.08476 -0.03641,-0.01857 -0.107943,-0.07174 -0.158965,-0.118143 -0.05103,-0.04641 -0.112163,-0.09451 -0.135866,-0.106891 -0.05931,-0.03099 -0.345148,-0.243552 -0.408734,-0.303951 -0.02858,-0.02716 -0.07436,-0.06273 -0.101722,-0.07905 -0.135958,-0.08109 -0.188374,-0.120422 -0.291069,-0.218436 -0.04741,-0.04524 -0.152115,-0.139128 -0.232701,-0.208641 -0.246038,-0.212231 -0.723958,-0.679393 -0.723958,-0.707658 0,-0.0086 -0.02909,-0.03073 -0.06464,-0.04919 -0.0817,-0.04242 -0.127485,-0.08662 -0.340429,-0.328648 -0.0948,-0.107758 -0.202217,-0.227574 -0.238699,-0.266261 -0.03648,-0.03869 -0.07692,-0.09073 -0.08986,-0.115652 -0.01294,-0.02492 -0.03571,-0.04999 -0.0506,-0.0557 -0.01489,-0.0057 -0.04954,-0.06047 -0.07701,-0.121687 -0.03758,-0.08377 -0.06409,-0.118553 -0.107153,-0.140629 -0.07891,-0.04045 -0.169705,-0.150519 -0.21394,-0.259342 -0.02038,-0.05015 -0.06909,-0.129438 -0.108233,-0.176195 -0.03914,-0.04676 -0.07117,-0.09789 -0.07117,-0.113637 0,-0.04134 -0.041806,-0.115528 -0.090973,-0.161451 -0.023397,-0.02185 -0.05581,-0.07227 -0.072021,-0.112041 -0.016218,-0.03977 -0.040105,-0.0917 -0.05309,-0.115404 -0.089035,-0.162536 -0.1136806,-0.212818 -0.136671,-0.278836 -0.01428,-0.04099 -0.02607,-0.09015 -0.026208,-0.109254 0,-0.0191 -0.017145,-0.06564 -0.037799,-0.103422 C 9.523239,23.48445 9.496916,23.367036 9.49127,23.236755 9.48935,23.192885 9.479342,23.146345 9.468977,23.133333 9.458619,23.120323 9.433131,23.051503 9.41234,22.980402 9.391548,22.909302 9.367263,22.833306 9.358369,22.811528 c -0.00889,-0.02178 -0.016165,-0.06594 -0.016165,-0.09813 0,-0.04008 -0.011507,-0.0666 -0.036489,-0.0841 C 9.275654,22.608248 9.266598,22.576948 9.254272,22.451641 9.240505,22.31162 9.187821,22.042024 9.1507882,21.92206 c -0.00849,-0.02749 -0.015429,-0.08023 -0.015429,-0.117207 0,-0.03698 -0.01058,-0.08818 -0.023519,-0.113778 -0.016088,-0.03185 -0.024806,-0.128181 -0.027602,-0.305102 -0.00222,-0.142206 -0.00697,-0.336123 -0.010488,-0.430928 -0.00352,-0.0948 -0.00906,-0.265451 -0.012303,-0.379216 -0.00322,-0.113764 -0.011882,-0.276743 -0.019206,-0.362175 -0.00909,-0.106086 -0.00644,-0.190788 0.00846,-0.267175 0.011966,-0.06151 0.01988,-0.166893 0.017582,-0.234174 -0.0023,-0.06765 0.00751,-0.167814 0.021956,-0.224083 0.014379,-0.05596 0.029372,-0.152621 0.033317,-0.214791 0.00398,-0.06217 0.015835,-0.139738 0.026407,-0.172371 0.010572,-0.03263 0.038764,-0.118811 0.062643,-0.191506 0.023879,-0.0727 0.043414,-0.17098 0.043414,-0.218412 0,-0.103308 0.053657,-0.338733 0.1204528,-0.528506 0.075958,-0.215804 0.082309,-0.234899 0.1146689,-0.344742 0.016754,-0.05688 0.047329,-0.122814 0.067937,-0.146515 0.063026,-0.07248 0.076157,-0.113613 0.076157,-0.23853 0,-0.103779 0.0077,-0.133859 0.056522,-0.220907 0.067906,-0.121075 0.1675598,-0.356122 0.1675598,-0.395227 0,-0.01544 0.018823,-0.05044 0.041829,-0.07778 0.028253,-0.03358 0.045797,-0.08194 0.05404,-0.149004 0.00674,-0.05461 0.022799,-0.114591 0.035738,-0.133292 0.012939,-0.0187 0.023527,-0.04659 0.023527,-0.06197 0,-0.01538 0.01559,-0.04208 0.03464,-0.05932 0.01906,-0.01725 0.04542,-0.06693 0.05858,-0.110404 0.02579,-0.08517 0.0458,-0.125476 0.117679,-0.23706 0.02545,-0.0395 0.05122,-0.09154 0.05727,-0.115644 0.0061,-0.0241 0.02187,-0.05284 0.03516,-0.06387 0.01329,-0.01103 0.02416,-0.02688 0.02416,-0.03521 0,-0.01731 0.187999,-0.350825 0.256273,-0.45464 0.02494,-0.03792 0.06668,-0.08951 0.09276,-0.114647 0.02609,-0.02514 0.04742,-0.05668 0.04742,-0.07009 0,-0.01341 0.04848,-0.07923 0.107728,-0.146247 0.05926,-0.06702 0.133959,-0.165445 0.166012,-0.218717 0.03205,-0.05327 0.08476,-0.118153 0.117136,-0.144178 0.03238,-0.02602 0.07708,-0.08228 0.09935,-0.125022 0.02226,-0.04274 0.08949,-0.120305 0.14938,-0.172371 0.09336,-0.08115 0.426239,-0.400438 0.486692,-0.466808 0.211702,-0.232438 0.596909,-0.613766 0.764584,-0.756887 0.0833,-0.0711 0.217447,-0.191963 0.298102,-0.268578 0.08065,-0.07662 0.204822,-0.187509 0.275923,-0.246432 0.116891,-0.09687 0.332669,-0.291022 0.500412,-0.450267 0.03495,-0.03318 0.105361,-0.08953 0.156475,-0.125219 0.232517,-0.16236 0.374045,-0.256171 0.437669,-0.29011 0.03792,-0.02023 0.114117,-0.0757 0.169322,-0.123271 0.09762,-0.08412 0.418884,-0.306018 0.443054,-0.306018 0.0067,0 0.09471,-0.06399 0.195753,-0.142206 0.235749,-0.182492 0.384119,-0.29125 0.437722,-0.320846 0.02341,-0.01293 0.04633,-0.03789 0.05092,-0.05548 0.0046,-0.01758 0.04436,-0.05283 0.08836,-0.07832 0.044,-0.02549 0.104273,-0.06646 0.133928,-0.09104 0.08832,-0.0732 0.244254,-0.174928 0.366131,-0.238849 0.06287,-0.03297 0.129815,-0.07369 0.148776,-0.09048 0.01896,-0.01679 0.05963,-0.03585 0.09039,-0.04235 0.03075,-0.0065 0.06178,-0.02141 0.06895,-0.03312 0.0071,-0.01171 0.06345,-0.05043 0.125073,-0.08605 0.149265,-0.08627 0.10402,-0.05788 0.387834,-0.2433446 0.318825,-0.2083467 0.35818,-0.2326816 0.376259,-0.2326816 0.0227,0 0.302186,-0.1338396 0.339081,-0.1623758 0.01422,-0.010999 0.07627,-0.042179 0.137897,-0.069288 0.06162,-0.027109 0.166809,-0.074797 0.233758,-0.1059721 0.06694,-0.031176 0.159692,-0.066246 0.206109,-0.077935 0.04642,-0.011687 0.110525,-0.038979 0.142455,-0.060648 0.06601,-0.044793 0.08433,-0.050967 0.196388,-0.066167 0.04434,-0.00601 0.106395,-0.029625 0.137897,-0.052468 0.0981,-0.071128 0.173765,-0.1070454 0.307433,-0.1459361 0.07099,-0.020655 0.144585,-0.044782 0.163546,-0.053617 0.01896,-0.00884 0.100404,-0.030692 0.180989,-0.04857 0.130114,-0.028868 0.352587,-0.1089454 0.434651,-0.1564508 0.01627,-0.00942 0.05894,-0.024363 0.0948,-0.03321 0.03588,-0.00885 0.119518,-0.03593 0.185885,-0.060184 0.06636,-0.024254 0.131683,-0.044263 0.145151,-0.044462 0.01348,-2.299e-4 0.03824,-0.01279 0.05502,-0.027979 0.01678,-0.015189 0.07557,-0.033589 0.130634,-0.040889 0.133109,-0.017647 0.324571,-0.066282 0.412825,-0.1048658 0.03927,-0.017166 0.09947,-0.036478 0.133783,-0.042915 0.03431,-0.00644 0.06622,-0.017907 0.0709,-0.025487 0.0047,-0.00758 0.04144,-0.018697 0.08169,-0.0247 0.181151,-0.027031 0.510226,-0.1057729 0.616697,-0.1475656 0.04297,-0.016867 0.147688,-0.039353 0.232701,-0.049968 0.08501,-0.010616 0.263169,-0.042724 0.395894,-0.071352 0.132726,-0.028628 0.326639,-0.062733 0.430928,-0.075788 0.190358,-0.023831 0.408251,-0.057365 0.680865,-0.1047878 0.08058,-0.014019 0.233313,-0.025437 0.33941,-0.025373 0.106096,6.9e-5 0.196985,-0.0065 0.20198,-0.014573 0.01605,-0.025976 0.700899,-0.058902 1.320216,-0.063472 0.48889,-0.00361 0.820118,0.015378 0.999752,0.057307 0.08058,0.018809 0.216321,0.042958 0.301649,0.053665 0.08532,0.010706 0.190037,0.02734 0.2327,0.036965 0.04266,0.00962 0.143497,0.024181 0.224083,0.032348 0.08058,0.00817 0.189171,0.027221 0.241319,0.042343 0.05214,0.015122 0.127386,0.027587 0.167215,0.0277 0.06678,1.532e-4 0.244384,0.037938 0.278927,0.059286 0.0081,0.00503 0.06313,0.012812 0.122184,0.017289 0.05906,0.00447 0.136587,0.023363 0.172287,0.041968 0.07178,0.037419 0.370812,0.1057438 0.462789,0.1057438 0.03228,0 0.102442,0.022981 0.155915,0.051069 0.08554,0.044933 0.440933,0.1632391 0.629062,0.2094054 0.03655,0.00897 0.09065,0.02882 0.120231,0.044116 0.02958,0.015295 0.123778,0.045659 0.209343,0.067475 0.157708,0.040211 0.391741,0.1164753 0.4412,0.1437735 0.07307,0.04033 0.406834,0.1566224 0.449145,0.1564937 0.01543,-5.14e-5 0.03703,0.010733 0.048,0.023955 0.01097,0.013223 0.04489,0.028064 0.07537,0.03298 0.08245,0.0133 0.247647,0.07666 0.321598,0.1233426 0.03579,0.022594 0.09526,0.049322 0.132151,0.059394 0.03689,0.010073 0.132818,0.057981 0.213173,0.1064632 0.08036,0.048481 0.188957,0.1099865 0.24132,0.1366764 0.05237,0.02669 0.133974,0.076334 0.181342,0.1103205 0.04737,0.033986 0.09521,0.061793 0.106303,0.061793 0.01109,0 0.08355,0.05962 0.161009,0.1324905 0.128758,0.1211269 0.140035,0.1370188 0.131431,0.1852987 -0.0052,0.029044 -0.01605,0.091592 -0.02416,0.1389938 -0.0081,0.047402 -0.02678,0.1094551 -0.04151,0.1378971 -0.01472,0.02844 -0.03214,0.08138 -0.0387,0.117651 -0.0066,0.03627 -0.028,0.09444 -0.04761,0.129278 -0.01961,0.03484 -0.04653,0.09403 -0.0598,0.131551 -0.01328,0.03752 -0.04718,0.104128 -0.07535,0.148024 -0.02817,0.0439 -0.05121,0.09279 -0.05121,0.108656 0,0.02702 -0.01226,0.05725 -0.113076,0.278842 -0.02167,0.04764 -0.05589,0.101533 -0.07602,0.119757 -0.02014,0.01822 -0.05288,0.06207 -0.07275,0.09743 -0.01987,0.03536 -0.05381,0.06873 -0.07541,0.07415 -0.02648,0.0066 -0.04593,0.03093 -0.05966,0.07451 -0.01121,0.03556 -0.03896,0.09357 -0.06166,0.128917 -0.02271,0.03535 -0.04129,0.0764 -0.04129,0.09123 0,0.01483 -0.03388,0.06348 -0.0753,0.108102 -0.04142,0.04463 -0.08819,0.104408 -0.103952,0.132849 -0.01575,0.02844 -0.04198,0.07137 -0.05828,0.09541 -0.0163,0.02403 -0.04515,0.0694 -0.06411,0.100826 -0.10972,0.181812 -0.125341,0.199451 -0.503469,0.568394 -0.04236,0.04133 -0.117618,0.0995 -0.167253,0.129278 -0.04963,0.02977 -0.115512,0.06965 -0.146401,0.08861 -0.09128,0.05602 -0.3304,0.246468 -0.535828,0.426749 -0.200648,0.176081 -0.278828,0.226154 -0.383874,0.245861 -0.03477,0.0065 -0.07227,0.02276 -0.08334,0.03609 -0.02203,0.02655 -0.246467,0.179009 -0.263513,0.179009 -0.01677,0 -0.217478,0.159339 -0.217478,0.172649 0,0.0066 -0.06012,0.04174 -0.133592,0.07811 -0.07347,0.03637 -0.151893,0.07772 -0.174263,0.0919 -0.02237,0.01417 -0.100327,0.05018 -0.173229,0.08003 -0.07291,0.02984 -0.18259,0.08375 -0.24374,0.119791 -0.06114,0.03604 -0.138326,0.08081 -0.171505,0.09948 -0.03319,0.01867 -0.09267,0.06028 -0.132182,0.09245 -0.03951,0.03217 -0.07664,0.0585 -0.08249,0.0585 -0.01153,0 -0.318074,0.179836 -0.52652,0.308891 -0.07111,0.04402 -0.226848,0.127709 -0.346098,0.185973 -0.119243,0.05826 -0.253117,0.133645 -0.29749,0.167514 -0.04437,0.03387 -0.08565,0.06158 -0.09173,0.06158 -0.01145,0 -0.167383,0.06976 -0.252902,0.113142 -0.02684,0.01361 -0.06467,0.02476 -0.08407,0.02476 -0.04792,0 -0.248008,0.0982 -0.33181,0.162839 -0.09608,0.07412 -0.142846,0.09572 -0.207213,0.09572 -0.03082,0 -0.07576,0.01551 -0.09986,0.03447 -0.02411,0.01896 -0.05454,0.03447 -0.06763,0.03447 -0.01309,0 -0.05423,0.01551 -0.09142,0.03447 -0.03719,0.01896 -0.0914,0.03447 -0.120468,0.03447 -0.02907,0 -0.06882,0.01118 -0.08833,0.02485 -0.04937,0.03458 -0.21459,0.09579 -0.258587,0.0958 -0.02006,4e-6 -0.05618,0.01552 -0.08029,0.03448 -0.02411,0.01896 -0.05886,0.03447 -0.07722,0.03447 -0.01836,0 -0.04743,0.01551 -0.06459,0.03448 -0.01716,0.01896 -0.04633,0.03447 -0.06483,0.03447 -0.04267,0 -0.231781,0.04695 -0.288533,0.07164 -0.0237,0.01031 -0.06249,0.02843 -0.08619,0.04028 -0.0237,0.01184 -0.07412,0.0313 -0.112041,0.04324 -0.03792,0.01194 -0.07671,0.02766 -0.08619,0.03493 -0.02202,0.01688 -0.271749,0.102948 -0.298723,0.102948 -0.01119,0 -0.06102,0.02003 -0.110747,0.04451 -0.101361,0.04989 -0.34468,0.127831 -0.399402,0.12793 -0.01967,3.4e-5 -0.06115,0.01555 -0.09218,0.03447 -0.03104,0.01893 -0.0671,0.03441 -0.08011,0.03441 -0.01301,0 -0.06906,0.02252 -0.124551,0.05005 -0.103698,0.05145 -0.261582,0.101865 -0.368054,0.11753 -0.03319,0.0049 -0.06897,0.01579 -0.07954,0.02424 -0.0192,0.01536 -0.155685,0.06082 -0.334154,0.111295 -0.05215,0.01475 -0.152981,0.04672 -0.224083,0.07106 -0.07111,0.02433 -0.179702,0.05811 -0.241319,0.07505 -0.06162,0.01694 -0.205121,0.06173 -0.318886,0.09952 -0.191301,0.06356 -0.260732,0.08374 -0.422309,0.122789 -0.05984,0.01446 -0.141176,0.04143 -0.224082,0.07429 -0.0237,0.0094 -0.06637,0.02327 -0.0948,0.03083 -0.02845,0.0076 -0.164189,0.05406 -0.301649,0.103326 -0.137468,0.04927 -0.31881,0.104444 -0.402988,0.12262 -0.08418,0.01817 -0.17493,0.04436 -0.201682,0.0582 -0.02674,0.01383 -0.06782,0.02515 -0.09126,0.02515 -0.04156,0 -0.16497,0.02234 -0.28658,0.05188 -0.03319,0.0081 -0.130144,0.02751 -0.215463,0.04323 -0.08533,0.01572 -0.178408,0.03637 -0.206846,0.04588 -0.02844,0.0095 -0.102135,0.02405 -0.163752,0.03229 -0.06162,0.0082 -0.163354,0.02216 -0.226066,0.03093 -0.11267,0.01576 -0.30738,0.07164 -0.64607,0.185417 -0.09571,0.03215 -0.212062,0.06347 -0.258556,0.06958 -0.04649,0.0061 -0.119511,0.02859 -0.162266,0.04994 -0.04276,0.02135 -0.139552,0.04819 -0.215112,0.05964 -0.07555,0.01145 -0.215096,0.0442 -0.310091,0.07276 -0.095,0.02857 -0.215387,0.05779 -0.267527,0.06494 -0.09627,0.0132 -0.159616,0.03305 -0.285546,0.08948 -0.03855,0.01727 -0.100987,0.0314 -0.138763,0.0314 -0.03777,0 -0.07678,0.0081 -0.08668,0.018 -0.0171,0.0171 -0.123678,0.0352 -0.393963,0.06692 -0.06635,0.0078 -0.151681,0.02643 -0.189603,0.04143 -0.03792,0.015 -0.10415,0.02761 -0.147181,0.02803 -0.04316,3.83e-4 -0.108839,0.0164 -0.146516,0.03566 -0.09494,0.04852 -0.17709,0.06846 -0.321246,0.07797 -0.09027,0.006 -0.143749,0.01982 -0.197085,0.05108 -0.04026,0.02359 -0.09381,0.0429 -0.119012,0.0429 -0.04199,0 -0.129753,0.019 -0.361742,0.07832 -0.0474,0.01212 -0.134549,0.03436 -0.19366,0.04942 -0.0591,0.01507 -0.134013,0.02739 -0.166449,0.02739 -0.03244,0 -0.110854,0.02327 -0.174241,0.05171 -0.06339,0.02844 -0.125524,0.05171 -0.138073,0.05171 -0.04432,0 -0.181686,0.0684 -0.192151,0.09568 -0.01911,0.04978 0.03661,0.08279 0.135568,0.08032 0.05018,-0.0013 0.115986,0.0066 0.146239,0.01737 0.04241,0.01516 0.07057,0.01452 0.122981,-0.0028 0.05595,-0.01847 0.08366,-0.01841 0.156651,3.06e-4 0.07267,0.01863 0.120483,0.01878 0.264854,8.66e-4 0.203688,-0.02527 0.889732,-0.02501 0.920353,3.83e-4 0.01112,0.0092 0.08661,0.02045 0.167744,0.02497 0.11165,0.0062 0.15996,0.0018 0.198694,-0.01825 0.06209,-0.03211 0.243911,-0.03537 0.274424,-0.0049 0.01583,0.0158 0.123655,0.02214 0.404206,0.02378 0.210446,0.0012 0.464069,0.0062 0.563615,0.01105 0.09954,0.0048 0.371027,0.0097 0.603298,0.01083 0.406758,0.0019 0.661238,0.01755 0.861855,0.05284 0.05214,0.0092 0.184,0.02933 0.293031,0.04479 0.109022,0.01546 0.237006,0.04294 0.284412,0.06108 0.06285,0.02405 0.124521,0.03222 0.22779,0.0302 0.07788,-0.0015 0.151571,0.0051 0.163752,0.01471 0.01218,0.0096 0.06973,0.02221 0.127884,0.02799 0.05815,0.0058 0.142088,0.02285 0.186521,0.03794 0.0446,0.01514 0.101952,0.02278 0.128029,0.01705 0.09314,-0.02046 0.409837,-0.01255 0.55361,0.01383 0.08058,0.01478 0.223952,0.03581 0.318595,0.04673 0.09465,0.01091 0.193163,0.03074 0.218919,0.04406 0.02576,0.01332 0.08351,0.02422 0.128351,0.02422 0.08666,0 0.289828,0.05916 0.335242,0.09762 0.03247,0.0275 0.08818,0.03003 0.113083,0.0051 0.01853,-0.01853 0.01902,-0.01844 0.30787,0.0514 0.07584,0.01834 0.199951,0.0387 0.275794,0.04524 0.08244,0.0071 0.149802,0.02227 0.167498,0.0377 0.01629,0.01419 0.07834,0.03138 0.137897,0.03819 0.05956,0.0068 0.131561,0.02518 0.160006,0.04082 0.02844,0.01564 0.0711,0.02848 0.09481,0.02854 0.05695,1.53e-4 0.247463,0.04177 0.344734,0.07532 0.04266,0.01472 0.135737,0.03958 0.206845,0.05525 0.0711,0.01567 0.138349,0.03582 0.149442,0.04478 0.01109,0.009 0.09479,0.02393 0.186,0.03326 0.156038,0.01596 0.205895,0.02817 0.267857,0.06558 0.03181,0.01921 0.128198,0.04383 0.275793,0.07045 0.06162,0.01111 0.158582,0.03824 0.215464,0.06028 0.05688,0.02204 0.14021,0.04516 0.185172,0.05137 0.176792,0.02442 0.687592,0.147583 0.755253,0.182103 0.03938,0.02009 0.123134,0.04815 0.186122,0.06235 0.06299,0.01421 0.145551,0.03338 0.183472,0.04261 0.03792,0.0092 0.107728,0.02483 0.155134,0.03466 0.0474,0.0098 0.09781,0.02783 0.112041,0.04 0.01422,0.01216 0.06051,0.02739 0.102871,0.03384 0.04236,0.0064 0.1221,0.03462 0.177197,0.06262 0.0551,0.028 0.113949,0.05091 0.130788,0.05091 0.01683,0 0.05689,0.01939 0.08902,0.04309 0.03212,0.0237 0.06608,0.04309 0.07548,0.04309 0.02525,0 0.16409,0.06941 0.175382,0.08768 0.0054,0.0087 0.04263,0.01575 0.08283,0.01575 0.04021,0 0.08089,0.0078 0.09041,0.0173 0.02116,0.02116 0.173573,0.06114 0.294172,0.07715 0.05404,0.0072 0.100887,0.02484 0.11902,0.04488 0.01645,0.01818 0.04228,0.03312 0.0574,0.03321 0.04067,2.3e-4 0.211404,0.08297 0.25442,0.123259 0.0251,0.02352 0.0491,0.03122 0.07331,0.02354 0.02262,-0.0072 0.04604,-0.0014 0.06303,0.01561 0.01487,0.01487 0.05169,0.02713 0.08183,0.02725 0.06558,2.3e-4 0.248919,0.08968 0.282673,0.137877 0.01321,0.01885 0.03881,0.03428 0.0569,0.03428 0.01809,0 0.04119,0.01551 0.05134,0.03447 0.01014,0.01896 0.03584,0.03447 0.0571,0.03447 0.02126,0 0.05531,0.01167 0.07568,0.02593 0.02037,0.01426 0.08501,0.04087 0.143643,0.05911 0.05864,0.01825 0.123203,0.04817 0.143489,0.06648 0.02029,0.01832 0.06165,0.04158 0.09195,0.0517 0.06667,0.02227 0.340276,0.182157 0.405608,0.237027 0.02585,0.0217 0.07234,0.04503 0.103323,0.05183 0.03098,0.0068 0.0874,0.03759 0.125379,0.06842 0.03798,0.03083 0.126007,0.08455 0.195614,0.119384 0.06961,0.03484 0.153257,0.09003 0.185877,0.122648 0.03262,0.03262 0.07028,0.05931 0.08369,0.05931 0.01341,0 0.07708,0.05042 0.14149,0.112041 0.06441,0.06162 0.125823,0.112041 0.136472,0.112041 0.01065,0 0.03909,0.01551 0.0632,0.03447 0.0241,0.01896 0.05271,0.03447 0.06356,0.03447 0.01086,0 0.04828,0.01939 0.08316,0.04309 0.03488,0.0237 0.07519,0.04326 0.08958,0.04347 0.0144,2.3e-4 0.06469,0.039 0.111773,0.08621 0.04708,0.04721 0.09944,0.09023 0.116355,0.09559 0.01691,0.0054 0.03074,0.01573 0.03074,0.02304 0,0.0073 0.04175,0.03372 0.09278,0.05871 0.05103,0.02499 0.09721,0.05696 0.102611,0.07104 0.0054,0.01409 0.05083,0.04639 0.100948,0.07179 0.09383,0.04754 0.27872,0.220937 0.296999,0.278517 0.0057,0.01786 0.03544,0.04604 0.06615,0.06262 0.153349,0.08277 0.179664,0.100463 0.227882,0.153171 0.02863,0.03129 0.06523,0.07705 0.08133,0.101697 0.01611,0.02465 0.05683,0.06183 0.0905,0.08264 0.03366,0.02081 0.06121,0.04552 0.06121,0.05492 0,0.0094 0.08039,0.09797 0.178645,0.196824 0.09825,0.09885 0.201031,0.212698 0.228388,0.252987 0.02736,0.04029 0.07302,0.0982 0.101461,0.128686 0.02844,0.03049 0.06785,0.07315 0.0876,0.0948 0.01974,0.02166 0.05851,0.05982 0.08619,0.08481 0.02766,0.02499 0.07357,0.07766 0.102013,0.117054 0.02844,0.03939 0.111068,0.130526 0.183625,0.202522 0.100082,0.09931 0.141612,0.155299 0.172072,0.231995 0.02209,0.0556 0.04472,0.101096 0.0503,0.101096 0.0056,0 0.04449,0.0342 0.08648,0.076 0.126689,0.126117 0.257331,0.321784 0.257331,0.385415 0,0.01684 0.02214,0.05758 0.0492,0.09056 0.05442,0.0663 0.105935,0.15908 0.105935,0.190772 0,0.01127 0.02327,0.05832 0.05171,0.104538 0.07191,0.116863 0.07177,0.233357 -7.66e-4,0.34208 -0.06608,0.09954 -0.12459,0.164256 -0.170908,0.189043 -0.02023,0.01082 -0.04112,0.04147 -0.04645,0.0681 -0.01461,0.07305 -0.22576,0.251539 -0.409469,0.346134 -0.02738,0.0141 -0.09683,0.07096 -0.15433,0.126357 -0.0575,0.0554 -0.143688,0.120487 -0.191531,0.144645 -0.04784,0.02416 -0.118016,0.06509 -0.155938,0.09096 -0.03792,0.02587 -0.103852,0.06454 -0.146515,0.08594 -0.04266,0.0214 -0.108594,0.06344 -0.146516,0.09342 -0.03792,0.02998 -0.08834,0.0644 -0.112041,0.07648 -0.108379,0.05526 -0.396185,0.227866 -0.480876,0.288396 -0.0357,0.02551 -0.08282,0.04196 -0.12066,0.04211 -0.03415,1.54e-4 -0.07886,0.0098 -0.09936,0.02155 -0.0205,0.01171 -0.09419,0.05113 -0.163752,0.08761 -0.06957,0.03647 -0.13386,0.07332 -0.142861,0.08188 -0.009,0.0086 -0.03086,0.01556 -0.04856,0.01556 -0.0177,0 -0.0576,0.01939 -0.08867,0.04309 -0.03107,0.0237 -0.0674,0.0432 -0.08072,0.04334 -0.03566,3.83e-4 -0.1652,0.04757 -0.237243,0.08645 -0.03453,0.01863 -0.08993,0.04581 -0.123112,0.0604 -0.08779,0.0386 -0.193806,0.09747 -0.251393,0.139605 -0.06365,0.04657 -0.172271,0.09698 -0.326049,0.151322 -0.370766,0.131022 -0.478249,0.174163 -0.60323,0.24212 -0.07588,0.04126 -0.196142,0.09475 -0.267243,0.118861 -0.271519,0.09208 -0.325728,0.112594 -0.364799,0.138082 -0.02215,0.01445 -0.07905,0.03486 -0.126459,0.04536 -0.0474,0.0105 -0.152115,0.04463 -0.2327,0.07585 -0.08059,0.03122 -0.216322,0.07058 -0.30165,0.08748 -0.08609,0.01705 -0.164533,0.04247 -0.17627,0.05712 -0.02265,0.02829 -0.231261,0.10712 -0.283477,0.10712 -0.01733,0 -0.0477,0.01619 -0.06749,0.03598 -0.04306,0.04306 -0.137353,0.08468 -0.191853,0.08467 -0.02163,-1e-6 -0.08588,0.01507 -0.142761,0.0335 -0.05688,0.01843 -0.157716,0.04606 -0.224083,0.06141 -0.06636,0.01535 -0.151686,0.03505 -0.189608,0.04378 -0.09009,0.02074 -0.40927,0.08037 -0.594679,0.111101 -0.144294,0.02391 -0.330508,0.06035 -0.482639,0.09444 -0.04266,0.0096 -0.169559,0.02153 -0.281999,0.02659 -0.112432,0.0051 -0.218972,0.017 -0.236761,0.02652 -0.06015,0.0322 -0.429778,0.0638 -0.582591,0.04982 -0.07958,-0.0073 -0.153264,-0.01 -0.163752,-0.0059 -0.0629,0.0241 -0.507744,0.05043 -0.67407,0.0399 -0.104281,-0.0066 -0.243901,-0.0053 -0.310268,0.0028 -0.144952,0.01784 -0.330117,0.0166 -0.517113,-0.0035 z"
       id="path5174" />
    <path
       d="m 31.340305,34.98989 c -0.0057,-0.0057 -0.144653,-0.01212 -0.308832,-0.01432 -0.262827,-0.0035 -0.307831,-0.0084 -0.37652,-0.04048 -0.07684,-0.03594 -0.08652,-0.03625 -0.64401,-0.02033 -0.3113,0.0089 -0.571181,0.01296 -0.577515,0.009 -0.0063,-0.0039 -0.139268,0.0029 -0.29541,0.01507 -0.318023,0.02486 -0.723378,0.01275 -0.79057,-0.02362 -0.03213,-0.01739 -0.12184,-0.01974 -0.405072,-0.01062 -0.388473,0.01251 -2.391533,0.01141 -2.535672,-0.0014 -0.120927,-0.01074 -0.809758,-0.01995 -2.585564,-0.03455 -1.772116,-0.01457 -1.914059,-0.01364 -2.121492,0.014 -0.248103,0.03305 -1.063297,0.02623 -1.429349,-0.01196 -0.364798,-0.03806 -0.459169,-0.03835 -0.901328,-0.0027 -0.2909,0.02343 -0.341317,0.02367 -0.40293,0.0019 -0.08308,-0.02931 -0.339597,-0.03173 -0.746957,-0.0071 -0.458819,0.02779 -1.678838,0.01695 -1.965028,-0.01746 -0.276421,-0.03324 -0.666937,-0.0477 -0.896329,-0.0332 -0.20411,0.01291 -0.790431,0.01884 -1.111792,0.01125 -0.0711,-0.0017 -0.376259,0.0032 -0.67813,0.01082 -0.407263,0.01029 -0.56386,0.02015 -0.607053,0.03819 -0.07331,0.03063 -0.117587,0.03071 -0.176515,3.07e-4 -0.03658,-0.01887 -0.06684,-0.02022 -0.141352,-0.0063 -0.12141,0.02266 -0.293145,0.03453 -0.499876,0.03457 -0.09006,1.6e-5 -0.287859,1.53e-4 -0.439546,1.53e-4 -1.6482566,9.35e-4 -1.8829339,-0.0019 -1.9822655,-0.02428 l -0.1034226,-0.02324 -0.0046,-0.43838 c -0.00253,-0.241111 0.0013,-0.444095 0.00862,-0.451077 0.032704,-0.03138 0.8649651,-0.07647 1.297394,-0.0703 0.1955681,0.0028 0.3787101,0.0024 0.6463911,-0.0014 0.151686,-0.0021 0.37275,0.0061 0.491257,0.01823 0.118507,0.01216 0.316305,0.02154 0.439546,0.02083 0.97434,-0.0056 1.311689,-0.01475 1.54272,-0.04201 0.194496,-0.02295 0.392477,-0.02938 0.892521,-0.02899 0.353422,3.06e-4 0.648996,0.0045 0.656841,0.0093 0.01466,0.0091 0.06532,0.01605 0.261981,0.03613 0.0914,0.0093 0.155126,0.0023 0.327505,-0.03635 l 0.214015,-0.04794 0.658818,0.0023 c 0.672558,0.0024 0.747035,0.0088 0.869619,0.07455 0.05254,0.02819 0.327004,0.02333 0.729622,-0.01294 0.34591,-0.03116 0.855333,-0.03556 0.973344,-0.0084 0.04911,0.0113 0.105327,0.01202 0.155134,0.002 0.268517,-0.05404 1.358805,-0.05703 1.750117,-0.0048 0.172435,0.02302 0.29287,0.02544 0.723958,0.01453 1.26539,-0.032 1.454249,-0.0343 1.568576,-0.01909 0.06636,0.0088 0.194348,0.0127 0.284412,0.0086 0.301682,-0.01369 0.851996,-0.0053 0.973895,0.01486 0.134214,0.02218 0.773279,0.04314 1.223834,0.04014 1.769988,-0.01178 2.590064,-0.01154 2.729243,8.28e-4 0.108231,0.0096 0.245088,0.0078 0.390671,-0.0053 0.123246,-0.01103 0.429635,-0.02166 0.680866,-0.02361 0.251231,-0.002 0.6507,-0.0071 0.88771,-0.01147 0.308192,-0.0057 0.470202,-0.0015 0.568824,0.01473 0.180304,0.02961 0.404356,0.02862 0.850121,-0.0037 0.274841,-0.01995 0.498363,-0.02378 0.911869,-0.0156 0.30128,0.006 0.696708,0.01204 0.878731,0.01351 0.207835,0.0017 0.337789,0.0095 0.349334,0.02105 0.01236,0.01236 0.01688,0.17341 0.01379,0.491257 l -0.0046,0.472876 -0.284412,0.01236 c -0.156427,0.0068 -0.346466,0.02044 -0.422309,0.03033 -0.112064,0.0146 -0.388147,0.02608 -0.939422,0.03907 -0.0237,5.36e-4 -0.137717,-0.0021 -0.253371,-0.0059 -0.153102,-0.005 -0.216141,-10e-4 -0.231839,0.01464 -0.02266,0.02264 -0.07066,0.02875 -0.08819,0.01122 z m -7.743496,-2.195813 c -0.07584,-0.0049 -0.148459,-0.01564 -0.161368,-0.02397 -0.01291,-0.0083 -0.07773,-0.02109 -0.144033,-0.02837 -0.111514,-0.01224 -0.126315,-0.01887 -0.197222,-0.08829 -0.157528,-0.154225 -0.261057,-0.437486 -0.238482,-0.652497 0.0065,-0.06162 0.02202,-0.123676 0.03457,-0.137897 0.01254,-0.01422 0.03755,-0.06464 0.05558,-0.112041 0.04261,-0.112048 0.118887,-0.231595 0.15613,-0.244711 0.01619,-0.0057 0.04552,-0.02479 0.06519,-0.04243 0.172619,-0.154806 0.423419,-0.216998 0.65496,-0.162413 0.06921,0.01632 0.135034,0.04076 0.146285,0.05431 0.01125,0.01356 0.02974,0.02465 0.0411,0.02465 0.0367,0 0.159417,0.117683 0.223675,0.214493 0.03441,0.05184 0.07024,0.099 0.07963,0.104803 0.03635,0.02247 0.08648,0.150237 0.09648,0.245891 0.0084,0.08018 0.0036,0.113815 -0.0237,0.168274 -0.01879,0.03744 -0.03824,0.09993 -0.04322,0.138876 -0.0087,0.06837 -0.094,0.219016 -0.164793,0.291167 -0.08242,0.084 -0.204551,0.186233 -0.237442,0.19875 -0.118301,0.04502 -0.215546,0.05958 -0.34333,0.0514 z m -4.246474,-0.09489 c -0.0413,-0.01288 -0.09008,-0.03951 -0.108389,-0.05916 -0.01831,-0.01965 -0.06208,-0.05054 -0.09727,-0.06865 -0.08324,-0.04282 -0.137005,-0.103626 -0.222384,-0.251531 -0.08671,-0.1502 -0.115875,-0.237763 -0.09936,-0.298254 0.007,-0.02557 0.01513,-0.102446 0.01811,-0.170838 0.0056,-0.127633 0.02183,-0.172758 0.10869,-0.301376 0.112696,-0.166885 0.206653,-0.230993 0.437471,-0.298497 0.08317,-0.02432 0.123732,-0.02634 0.244975,-0.01221 0.08485,0.0099 0.174485,0.03214 0.215437,0.05349 0.03857,0.02011 0.08734,0.03683 0.108384,0.03716 0.04788,7.66e-4 0.08804,0.02418 0.191131,0.11143 0.116462,0.09857 0.128561,0.12402 0.157457,0.331205 0.04399,0.315448 0.0063,0.47725 -0.134341,0.577222 -0.03043,0.02163 -0.09614,0.07623 -0.146012,0.121344 -0.04987,0.04511 -0.101963,0.08202 -0.115756,0.08202 -0.01379,0 -0.04888,0.02327 -0.07798,0.05171 -0.0294,0.02874 -0.0715,0.05171 -0.09476,0.05171 -0.02302,0 -0.08122,0.01551 -0.129322,0.03447 -0.10074,0.03971 -0.15129,0.04143 -0.256087,0.0087 z M 34.182751,25.59307 c -0.01168,-0.04108 -0.0306,-0.648432 -0.03557,-1.141957 -0.0022,-0.22279 -0.01321,-0.614503 -0.02437,-0.870474 -0.02101,-0.482004 -0.01166,-1.677269 0.01391,-1.777324 0.0075,-0.02949 0.007,-0.11481 -0.0012,-0.189608 -0.0284,-0.259971 -0.03819,-1.046737 -0.01655,-1.330184 0.01606,-0.210348 0.01608,-0.342296 1.53e-4,-0.589849 -0.0319,-0.494371 -0.03961,-1.121767 -0.0161,-1.309341 0.02429,-0.193815 0.0246,-0.527189 6.89e-4,-0.707399 -0.04748,-0.357279 -0.05424,-0.490459 -0.03237,-0.637772 0.03008,-0.202656 0.02848,-0.770429 -0.003,-1.042844 -0.01778,-0.154056 -0.02586,-0.396454 -0.02586,-0.77567 v -0.551587 h 0.551587 0.551587 l 0.0056,0.224082 c 0.0031,0.123246 0.0054,0.251232 0.0051,0.284413 -0.01523,1.697034 0.0068,2.92749 0.0595,3.319401 0.01811,0.134756 0.02849,0.351079 0.03014,0.627893 0.0024,0.400382 3.83e-4,0.429022 -0.0384,0.551587 -0.04763,0.150551 -0.05002,0.239754 -0.01893,0.706721 0.01168,0.175388 0.02618,0.396453 0.03223,0.491257 0.01385,0.21725 -0.0035,0.549501 -0.03699,0.706721 -0.0327,0.15369 -0.0268,0.680885 0.01052,0.939422 0.02231,0.154553 0.03434,0.410098 0.03205,0.680865 -3.06e-4,0.03792 -0.0016,0.541286 -0.0027,1.118588 -0.0018,0.880536 -0.0062,1.057432 -0.02716,1.098008 -0.03067,0.0593 -0.03217,0.122213 -0.0036,0.150774 0.04529,0.04529 -0.03682,0.05392 -0.515806,0.05418 -0.448026,2.3e-4 -0.486453,-0.0021 -0.494363,-0.0299 z M 7.1018529,25.480578 c -0.020003,-0.03053 -0.027932,-0.125243 -0.035708,-0.426618 -0.00552,-0.213062 -0.017635,-0.476585 -0.026974,-0.58561 -0.017911,-0.209318 -0.023619,-0.374703 -0.039078,-1.133326 -0.00529,-0.258332 -0.016785,-0.529816 -0.025595,-0.603298 -0.021259,-0.177228 -0.029801,-0.493087 -0.023894,-0.883415 0.010718,-0.707958 0.00368,-1.747932 -0.013575,-1.999503 -0.010059,-0.146946 -0.021489,-0.479868 -0.025396,-0.739827 -0.00674,-0.450909 -0.00552,-0.474879 0.027311,-0.520987 0.024722,-0.03472 0.031647,-0.06423 0.024592,-0.104789 -0.00536,-0.03105 -0.013253,-0.203834 -0.017444,-0.383962 -0.00421,-0.180128 -0.012549,-0.424463 -0.018562,-0.542968 -0.020516,-0.404211 -0.023197,-0.543575 -0.031686,-1.645521 -0.0059,-0.767894 -0.00291,-1.109281 0.00991,-1.12472 0.026905,-0.03242 0.966932,-0.03217 0.9938449,2.3e-4 0.013445,0.0162 0.011606,0.05251 -0.00666,0.130682 -0.016755,0.07184 -0.024837,0.197018 -0.024017,0.372142 7.661e-4,0.14514 -0.00788,0.437323 -0.019022,0.649296 -0.020485,0.389868 -0.01988,0.406205 0.036949,0.997321 0.017965,0.186791 0.015207,0.485085 -0.011216,1.215215 -0.00552,0.151686 -0.00939,0.505754 -0.00867,0.786817 9.96e-4,0.374377 -0.00582,0.562356 -0.025457,0.702992 -0.028529,0.204498 -0.026277,0.420531 0.012051,1.156085 0.022293,0.427954 0.02093,1.104329 -0.00283,1.406385 -0.010189,0.129416 -0.010358,0.277155 -7.661e-4,0.389795 0.032728,0.372583 0.039684,0.960621 0.015644,1.323734 -0.029502,0.445718 -0.029924,0.732563 -0.00146,0.973896 0.028591,0.242114 0.037393,0.579646 0.01585,0.607608 -0.012365,0.01604 -0.1105626,0.02155 -0.3846937,0.02155 -0.3639555,0 -0.3683758,-4.6e-4 -0.3937948,-0.03923 z M 16.159003,6.1106905 c -0.03318,-0.00739 -0.10687,-0.026639 -0.163752,-0.042787 -0.08786,-0.024944 -0.152691,-0.027801 -0.430927,-0.018998 -0.180131,0.0057 -0.428346,0.018081 -0.551587,0.027514 -0.324609,0.024844 -2.901593,0.041138 -2.984752,0.018871 -0.04053,-0.010852 -0.561056,-0.022247 -1.341759,-0.029372 -1.6256952,-0.014839 -1.5415169,-0.015211 -1.8414117,0.00814 -0.1405781,0.010948 -0.262747,0.015488 -0.2714881,0.010089 -0.00905,-0.00559 -0.015881,-0.2093549 -0.015881,-0.4735942 0,-0.4445883 0.00138,-0.4645335 0.034137,-0.4820449 0.022362,-0.01197 0.2734033,-0.018454 0.7282634,-0.018808 0.3817748,-3.064e-4 0.8958084,-9.576e-4 1.1422984,-0.00147 0.24649,-5.362e-4 0.537368,0.00169 0.646391,0.0049 0.109023,0.0032 0.333971,5.362e-4 0.499876,-0.00593 0.516668,-0.020144 0.9241,-0.019 1.344194,0.00378 0.262265,0.014216 0.505017,0.017198 0.689484,0.00847 0.15659,-0.00741 0.375125,-0.015089 0.485627,-0.017062 0.110501,-0.00198 0.213449,-0.0084 0.228778,-0.014282 0.02695,-0.010344 0.575819,0.00855 1.035459,0.035644 0.274935,0.016207 0.559384,0.01132 0.665472,-0.011432 0.05199,-0.011151 0.317183,-0.011478 0.767077,-9.5e-4 1.06711,0.024976 1.736432,0.022139 1.807753,-0.00766 0.03989,-0.016667 0.124705,-0.024579 0.262312,-0.02447 0.137954,7.66e-5 0.226381,-0.00816 0.274936,-0.025722 0.137087,-0.049573 0.373886,-0.065938 0.635146,-0.043896 0.132725,0.011199 0.338277,0.021938 0.456783,0.023865 0.118504,0.00193 0.254247,0.013209 0.301649,0.02507 0.0474,0.011862 0.113334,0.02828 0.146515,0.036484 0.04891,0.012094 0.660564,0.033243 1.120411,0.038741 0.262987,0.00314 0.58108,-0.019211 0.629718,-0.044256 0.1032,-0.053137 0.368495,-0.025306 0.477257,0.050067 0.06356,0.044048 0.07041,0.044974 0.271557,0.03669 0.179633,-0.0074 0.210315,-0.013031 0.236981,-0.043511 0.01685,-0.019257 0.06554,-0.042969 0.108197,-0.052693 0.102197,-0.023293 0.804072,-0.024791 1.120411,-0.00239 0.137466,0.00973 0.323627,0.020805 0.41369,0.0246 0.09006,0.00379 0.209118,0.018742 0.264564,0.033212 0.145546,0.037987 1.151683,0.045475 1.219693,0.00908 0.01669,-0.00893 0.05754,-0.016237 0.09079,-0.016237 0.03325,0 0.0647,-0.00688 0.06989,-0.015283 0.0052,-0.00841 0.03534,-0.020141 0.06699,-0.026079 0.09587,-0.017986 0.822154,-0.013276 0.951203,0.00617 0.06636,0.01 0.249847,0.020069 0.407744,0.022378 0.276823,0.00405 0.288568,0.00281 0.328615,-0.034585 0.03998,-0.037333 0.05342,-0.038776 0.359308,-0.038579 0.225324,1.532e-4 0.345356,0.00761 0.412579,0.025651 0.05214,0.013995 0.149101,0.025809 0.215464,0.026252 0.06636,4.597e-4 0.182713,0.013552 0.258556,0.029131 0.175501,0.036049 0.339135,0.032105 0.439546,-0.010595 0.04266,-0.018141 0.120229,-0.037699 0.172371,-0.043463 0.07893,-0.00872 1.170756,-0.033762 1.310019,-0.030043 0.405782,0.010838 0.643518,0.02328 0.729862,0.038199 0.05837,0.010086 0.136368,0.02295 0.173318,0.028586 0.03695,0.00564 0.189484,3.064e-4 0.338967,-0.011766 0.150078,-0.012156 0.32274,-0.016556 0.385577,-0.00983 l 0.11379,0.012186 -0.0046,0.451071 -0.0046,0.4510718 -0.120659,0.030746 c -0.08912,0.02271 -0.212246,0.032758 -0.47105,0.038443 -0.192716,0.00424 -0.510741,0.014917 -0.706721,0.023744 -0.345357,0.015555 -0.42053,0.012338 -0.787258,-0.033683 -0.199351,-0.025017 -0.168953,-0.025095 -0.706721,0.00182 -0.310392,0.015536 -0.445972,0.015849 -0.542969,0.00125 -0.158231,-0.023816 -0.3235,-0.024137 -0.594679,-0.00116 -0.342376,0.029015 -0.745927,0.024986 -0.861458,-0.0086 -0.08851,-0.025731 -0.137396,-0.026809 -0.454855,-0.010024 -0.470328,0.024866 -1.936046,0.02653 -1.981414,0.00225 -0.05396,-0.028877 -0.187019,-0.020573 -0.493796,0.030817 -0.174805,0.029282 -3.638706,0.021524 -4.387385,-0.00983 -0.324143,-0.013573 -0.402811,-0.010831 -0.758526,0.026443 -0.09965,0.010443 -0.217732,0.0113 -0.301649,0.00219 -0.117547,-0.012759 -1.641083,-0.045823 -1.740947,-0.037781 -0.01896,0.00152 -0.41843,0.010647 -0.88771,0.020267 -0.46928,0.00962 -0.910034,0.02534 -0.979452,0.034934 -0.143778,0.01987 -0.362063,0.019895 -0.451227,5.13e-5 z"
       id="path5176"
       style="display:inline;stroke-width:0.0766093" />
  </g>
  <g
     id="g23393">
    <path
       d="M 42.166864,19.7129 V 6.11231 h 10.084473 v 2.30078 h -7.338379 v 3.01514 h 6.828125 v 2.2915 h -6.828125 v 3.70166 h 7.598145 v 2.29151 z"
       style="font-weight:bold;font-size:19px;line-height:2;font-family:Arial;-inkscape-font-specification:'Arial Bold';text-align:start;letter-spacing:-0.793751px;text-anchor:start;fill:#454545;stroke-width:0.400001;stroke-linecap:round;stroke-linejoin:round"
       id="path11320" />
    <path
       d="m 53.127508,16.90186 2.616211,-0.39892 q 0.166992,0.76074 0.677246,1.15966 0.510254,0.38965 1.428711,0.38965 1.011231,0 1.521484,-0.37109 0.343262,-0.25977 0.343262,-0.6958 0,-0.29688 -0.185547,-0.4917 -0.194824,-0.18555 -0.87207,-0.34326 -3.154297,-0.6958 -3.998535,-1.271 -1.168945,-0.79785 -1.168945,-2.21728 0,-1.28028 1.01123,-2.15235 1.01123,-0.87207 3.135742,-0.87207 2.022461,0 3.00586,0.65869 0.983398,0.65869 1.354492,1.94824 l -2.458496,0.45459 q -0.157715,-0.57519 -0.603028,-0.88134 -0.436035,-0.30616 -1.252441,-0.30616 -1.029785,0 -1.475098,0.2876 -0.296875,0.2041 -0.296875,0.52881 0,0.27832 0.259766,0.47315 0.352539,0.25976 2.430664,0.73291 2.087402,0.47314 2.913086,1.15966 0.816406,0.6958 0.816406,1.93897 0,1.35449 -1.131836,2.32861 -1.131836,0.97412 -3.349121,0.97412 -2.013183,0 -3.191406,-0.8164 -1.168945,-0.81641 -1.530762,-2.21729 z"
       style="font-weight:bold;font-size:19px;line-height:2;font-family:Arial;-inkscape-font-specification:'Arial Bold';text-align:start;letter-spacing:-0.793751px;text-anchor:start;fill:#454545;stroke-width:0.400001;stroke-linecap:round;stroke-linejoin:round"
       id="path11322" />
    <path
       d="m 72.419207,12.77344 -2.56982,0.46387 q -0.12989,-0.77002 -0.59375,-1.15967 -0.45459,-0.38965 -1.1875,-0.38965 -0.97413,0 -1.5586,0.67725 -0.57519,0.66797 -0.57519,2.24512 0,1.75342 0.58447,2.47705 0.59375,0.72363 1.58642,0.72363 0.74219,0 1.21534,-0.41748 0.47314,-0.42676 0.66797,-1.45654 l 2.56054,0.43603 q -0.39892,1.7627 -1.53076,2.6626 -1.13184,0.8999 -3.03369,0.8999 -2.16162,0 -3.45117,-1.36377 -1.28028,-1.36377 -1.28028,-3.77588 0,-2.43994 1.28955,-3.79443 1.28956,-1.36377 3.48829,-1.36377 1.7998,0 2.85742,0.7793 1.06689,0.77002 1.53076,2.35644 z"
       style="font-weight:bold;font-size:19px;line-height:2;font-family:Arial;-inkscape-font-specification:'Arial Bold';text-align:start;letter-spacing:-0.793751px;text-anchor:start;fill:#454545;stroke-width:0.400001;stroke-linecap:round;stroke-linejoin:round"
       id="path11324" />
    <path
       d="m 73.007777,14.64747 q 0,-1.29883 0.64014,-2.51416 0.64014,-1.21534 1.80908,-1.85547 1.17822,-0.64014 2.62549,-0.64014 2.23584,0 3.66455,1.45654 1.42871,1.44727 1.42871,3.66455 0,2.23584 -1.44726,3.71094 -1.43799,1.46582 -3.62745,1.46582 -1.35449,0 -2.58837,-0.6123 -1.22461,-0.61231 -1.86475,-1.79053 -0.64014,-1.1875 -0.64014,-2.88525 z m 2.67188,0.13916 q 0,1.46582 0.6958,2.24511 0.6958,0.7793 1.71631,0.7793 1.02051,0 1.70703,-0.7793 0.6958,-0.77929 0.6958,-2.26367 0,-1.44726 -0.6958,-2.22656 -0.68652,-0.7793 -1.70703,-0.7793 -1.02051,0 -1.71631,0.7793 -0.6958,0.7793 -0.6958,2.24512 z"
       style="font-weight:bold;font-size:19px;line-height:2;font-family:Arial;-inkscape-font-specification:'Arial Bold';text-align:start;letter-spacing:-0.793751px;text-anchor:start;fill:#454545;stroke-width:0.400001;stroke-linecap:round;stroke-linejoin:round"
       id="path11326" />
    <path
       d="m 86.927897,19.7129 h -2.60693 V 9.86036 h 2.42138 v 1.40088 q 0.62158,-0.99268 1.11328,-1.30811 0.50098,-0.31543 1.13184,-0.31543 0.89062,0 1.71631,0.4917 l -0.80713,2.27295 q -0.65869,-0.42676 -1.22461,-0.42676 -0.54736,0 -0.92773,0.30615 -0.38038,0.29688 -0.60303,1.08545 -0.21338,0.78858 -0.21338,3.30274 z"
       style="font-weight:bold;font-size:19px;line-height:2;font-family:Arial;-inkscape-font-specification:'Arial Bold';text-align:start;letter-spacing:-0.793751px;text-anchor:start;fill:#454545;stroke-width:0.400001;stroke-linecap:round;stroke-linejoin:round"
       id="path11328" />
    <path
       d="m 99.985217,19.7129 h -2.60693 v -5.02832 q 0,-1.59571 -0.16699,-2.05957 -0.167,-0.47315 -0.54737,-0.73291 -0.37109,-0.25977 -0.8999,-0.25977 -0.67724,0 -1.21533,0.37109 -0.53809,0.3711 -0.74219,0.9834 -0.19482,0.61231 -0.19482,2.26367 v 4.46241 h -2.60694 V 9.86036 h 2.42139 v 1.44726 q 1.28955,-1.66992 3.24707,-1.66992 0.86279,0 1.57715,0.31543 0.71436,0.30615 1.07617,0.78858 0.3711,0.48242 0.51026,1.09472 0.14843,0.61231 0.14843,1.75342 z"
       style="font-weight:bold;font-size:19px;line-height:2;font-family:Arial;-inkscape-font-specification:'Arial Bold';text-align:start;letter-spacing:-0.793751px;text-anchor:start;fill:#454545;stroke-width:0.400001;stroke-linecap:round;stroke-linejoin:round"
       id="path11330" />
    <path
       d="m 103.79303,12.86622 -2.36572,-0.42676 q 0.39893,-1.42871 1.37305,-2.11524 0.97412,-0.68652 2.89453,-0.68652 1.74414,0 2.59766,0.41748 0.85351,0.4082 1.19677,1.04834 0.35254,0.63086 0.35254,2.32861 l -0.0278,3.04297 q 0,1.29883 0.12061,1.92041 0.12988,0.61231 0.47314,1.31739 h -2.5791 q -0.10205,-0.25977 -0.25049,-0.77002 -0.0649,-0.23194 -0.0928,-0.30616 -0.66797,0.64942 -1.42871,0.97413 -0.76075,0.3247 -1.62354,0.3247 -1.52148,0 -2.40283,-0.82568 -0.87207,-0.82568 -0.87207,-2.0874 0,-0.83496 0.39892,-1.48438 0.39893,-0.65869 1.11329,-1.00195 0.72363,-0.35254 2.07812,-0.61231 1.82764,-0.34326 2.53272,-0.64013 v -0.25977 q 0,-0.75146 -0.3711,-1.06689 -0.37109,-0.32471 -1.40088,-0.32471 -0.6958,0 -1.08545,0.27832 -0.38964,0.26904 -0.63086,0.95557 z m 3.48829,2.11523 q -0.50098,0.16699 -1.58643,0.39893 -1.08545,0.23193 -1.41943,0.45459 -0.51026,0.36181 -0.51026,0.91845 0,0.54737 0.40821,0.94629 0.4082,0.39893 1.03906,0.39893 0.70508,0 1.34521,-0.46387 0.47315,-0.35254 0.62159,-0.86279 0.10205,-0.33399 0.10205,-1.271 z"
       style="font-weight:bold;font-size:19px;line-height:2;font-family:Arial;-inkscape-font-specification:'Arial Bold';text-align:start;letter-spacing:-0.793751px;text-anchor:start;fill:#454545;stroke-width:0.400001;stroke-linecap:round;stroke-linejoin:round"
       id="path11332" />
    <path
       d="M 111.51588,19.7129 V 6.11231 h 2.60694 v 4.89844 q 1.20605,-1.37305 2.85742,-1.37305 1.7998,0 2.97802,1.30811 1.17823,1.29882 1.17823,3.73877 0,2.52343 -1.20606,3.8872 -1.19677,1.36377 -2.91308,1.36377 -0.84424,0 -1.66993,-0.41748 -0.8164,-0.42676 -1.41015,-1.25244 v 1.44727 z m 2.58838,-5.13965 q 0,1.53076 0.48242,2.26367 0.67725,1.03906 1.79981,1.03906 0.86279,0 1.46582,-0.73291 0.6123,-0.74219 0.6123,-2.32861 0,-1.68848 -0.6123,-2.43067 -0.61231,-0.75146 -1.56787,-0.75146 -0.93702,0 -1.5586,0.73291 -0.62158,0.72363 -0.62158,2.20801 z"
       style="font-weight:bold;font-size:19px;line-height:2;font-family:Arial;-inkscape-font-specification:'Arial Bold';text-align:start;letter-spacing:-0.793751px;text-anchor:start;fill:#454545;stroke-width:0.400001;stroke-linecap:round;stroke-linejoin:round"
       id="path11334" />
    <path
       d="m 121.84567,14.64747 q 0,-1.29883 0.64014,-2.51416 0.64013,-1.21534 1.80908,-1.85547 1.17822,-0.64014 2.62549,-0.64014 2.23584,0 3.66455,1.45654 1.42871,1.44727 1.42871,3.66455 0,2.23584 -1.44727,3.71094 -1.43799,1.46582 -3.62744,1.46582 -1.35449,0 -2.58838,-0.6123 -1.22461,-0.61231 -1.86474,-1.79053 -0.64014,-1.1875 -0.64014,-2.88525 z m 2.67187,0.13916 q 0,1.46582 0.69581,2.24511 0.6958,0.7793 1.7163,0.7793 1.02051,0 1.70704,-0.7793 0.6958,-0.77929 0.6958,-2.26367 0,-1.44726 -0.6958,-2.22656 -0.68653,-0.7793 -1.70704,-0.7793 -1.0205,0 -1.7163,0.7793 -0.69581,0.7793 -0.69581,2.24512 z"
       style="font-weight:bold;font-size:19px;line-height:2;font-family:Arial;-inkscape-font-specification:'Arial Bold';text-align:start;letter-spacing:-0.793751px;text-anchor:start;fill:#454545;stroke-width:0.400001;stroke-linecap:round;stroke-linejoin:round"
       id="path11336" />
    <path
       d="m 137.78824,9.86036 v 2.07812 h -1.78125 v 3.97071 q 0,1.20605 0.0464,1.41015 0.0557,0.19483 0.23193,0.32471 0.18555,0.12988 0.44532,0.12988 0.36181,0 1.04834,-0.25049 l 0.22265,2.02246 q -0.90918,0.38965 -2.05957,0.38965 -0.70508,0 -1.27099,-0.23193 -0.56592,-0.24121 -0.83497,-0.61231 -0.25976,-0.38037 -0.36181,-1.0205 -0.0835,-0.45459 -0.0835,-1.83692 v -4.29541 h -1.19677 V 9.86036 h 1.19677 V 7.90284 L 136.007,6.38135 v 3.47901 z"
       style="font-weight:bold;font-size:19px;line-height:2;font-family:Arial;-inkscape-font-specification:'Arial Bold';text-align:start;letter-spacing:-0.793751px;text-anchor:start;fill:#454545;stroke-width:0.400001;stroke-linecap:round;stroke-linejoin:round"
       id="path11338" />
  </g>
</svg>
